<svg width="248" height="36" viewBox="0 0 248 36" fill="none" xmlns="http://www.w3.org/2000/svg">
<path d="M72.164 12.376L67.936 28H62.644L60.18 17.864L57.632 28H52.368L48.112 12.376H52.9L55.112 23.548L57.744 12.376H62.812L65.472 23.492L67.656 12.376H72.164ZM73.0379 20.16C73.0379 18.5547 73.3366 17.1453 73.9339 15.932C74.5499 14.7187 75.3806 13.7853 76.4259 13.132C77.4712 12.4787 78.6379 12.152 79.9259 12.152C81.0272 12.152 81.9886 12.376 82.8099 12.824C83.6499 13.272 84.2939 13.86 84.7419 14.588V12.376H89.5299V28H84.7419V25.788C84.2752 26.516 83.6219 27.104 82.7819 27.552C81.9606 28 80.9992 28.224 79.8979 28.224C78.6286 28.224 77.4712 27.8973 76.4259 27.244C75.3806 26.572 74.5499 25.6293 73.9339 24.416C73.3366 23.184 73.0379 21.7653 73.0379 20.16ZM84.7419 20.188C84.7419 18.9933 84.4059 18.0507 83.7339 17.36C83.0806 16.6693 82.2779 16.324 81.3259 16.324C80.3739 16.324 79.5619 16.6693 78.8899 17.36C78.2366 18.032 77.9099 18.9653 77.9099 20.16C77.9099 21.3547 78.2366 22.3067 78.8899 23.016C79.5619 23.7067 80.3739 24.052 81.3259 24.052C82.2779 24.052 83.0806 23.7067 83.7339 23.016C84.4059 22.3253 84.7419 21.3827 84.7419 20.188ZM101.702 23.94V28H99.2658C97.5298 28 96.1765 27.58 95.2058 26.74C94.2351 25.8813 93.7498 24.4907 93.7498 22.568V16.352H91.8458V12.376H93.7498V8.568H98.5378V12.376H101.674V16.352H98.5378V22.624C98.5378 23.0907 98.6498 23.4267 98.8738 23.632C99.0978 23.8373 99.4711 23.94 99.9938 23.94H101.702ZM119.097 19.936C119.097 20.384 119.069 20.8507 119.013 21.336H108.177C108.251 22.3067 108.559 23.0533 109.101 23.576C109.661 24.08 110.342 24.332 111.145 24.332C112.339 24.332 113.17 23.828 113.637 22.82H118.733C118.471 23.8467 117.995 24.7707 117.305 25.592C116.633 26.4133 115.783 27.0573 114.757 27.524C113.73 27.9907 112.582 28.224 111.313 28.224C109.782 28.224 108.419 27.8973 107.225 27.244C106.03 26.5907 105.097 25.6573 104.425 24.444C103.753 23.2307 103.417 21.812 103.417 20.188C103.417 18.564 103.743 17.1453 104.397 15.932C105.069 14.7187 106.002 13.7853 107.197 13.132C108.391 12.4787 109.763 12.152 111.313 12.152C112.825 12.152 114.169 12.4693 115.345 13.104C116.521 13.7387 117.435 14.644 118.089 15.82C118.761 16.996 119.097 18.368 119.097 19.936ZM114.197 18.676C114.197 17.8547 113.917 17.2013 113.357 16.716C112.797 16.2307 112.097 15.988 111.257 15.988C110.454 15.988 109.773 16.2213 109.213 16.688C108.671 17.1547 108.335 17.8173 108.205 18.676H114.197ZM126.411 14.98C126.971 14.1213 127.671 13.4493 128.511 12.964C129.351 12.46 130.284 12.208 131.311 12.208V17.276H129.995C128.8 17.276 127.904 17.5373 127.307 18.06C126.709 18.564 126.411 19.46 126.411 20.748V28H121.623V12.376H126.411V14.98ZM153.535 12.208C155.477 12.208 157.017 12.796 158.155 13.972C159.313 15.148 159.891 16.7813 159.891 18.872V28H155.131V19.516C155.131 18.508 154.861 17.7333 154.319 17.192C153.797 16.632 153.069 16.352 152.135 16.352C151.202 16.352 150.465 16.632 149.923 17.192C149.401 17.7333 149.139 18.508 149.139 19.516V28H144.379V19.516C144.379 18.508 144.109 17.7333 143.567 17.192C143.045 16.632 142.317 16.352 141.383 16.352C140.45 16.352 139.713 16.632 139.171 17.192C138.649 17.7333 138.387 18.508 138.387 19.516V28H133.599V12.376H138.387V14.336C138.873 13.6827 139.507 13.1693 140.291 12.796C141.075 12.404 141.962 12.208 142.951 12.208C144.127 12.208 145.173 12.46 146.087 12.964C147.021 13.468 147.749 14.1867 148.271 15.12C148.813 14.2613 149.55 13.5613 150.483 13.02C151.417 12.4787 152.434 12.208 153.535 12.208ZM170.352 28.224C168.821 28.224 167.44 27.8973 166.208 27.244C164.995 26.5907 164.033 25.6573 163.324 24.444C162.633 23.2307 162.288 21.812 162.288 20.188C162.288 18.5827 162.643 17.1733 163.352 15.96C164.061 14.728 165.032 13.7853 166.264 13.132C167.496 12.4787 168.877 12.152 170.408 12.152C171.939 12.152 173.32 12.4787 174.552 13.132C175.784 13.7853 176.755 14.728 177.464 15.96C178.173 17.1733 178.528 18.5827 178.528 20.188C178.528 21.7933 178.164 23.212 177.436 24.444C176.727 25.6573 175.747 26.5907 174.496 27.244C173.264 27.8973 171.883 28.224 170.352 28.224ZM170.352 24.08C171.267 24.08 172.041 23.744 172.676 23.072C173.329 22.4 173.656 21.4387 173.656 20.188C173.656 18.9373 173.339 17.976 172.704 17.304C172.088 16.632 171.323 16.296 170.408 16.296C169.475 16.296 168.7 16.632 168.084 17.304C167.468 17.9573 167.16 18.9187 167.16 20.188C167.16 21.4387 167.459 22.4 168.056 23.072C168.672 23.744 169.437 24.08 170.352 24.08ZM190.588 12.208C192.417 12.208 193.873 12.8053 194.956 14C196.057 15.176 196.608 16.8 196.608 18.872V28H191.848V19.516C191.848 18.4707 191.577 17.6587 191.036 17.08C190.495 16.5013 189.767 16.212 188.852 16.212C187.937 16.212 187.209 16.5013 186.668 17.08C186.127 17.6587 185.856 18.4707 185.856 19.516V28H181.068V12.376H185.856V14.448C186.341 13.7573 186.995 13.216 187.816 12.824C188.637 12.4133 189.561 12.208 190.588 12.208ZM202.343 10.752C201.503 10.752 200.813 10.5093 200.271 10.024C199.749 9.52 199.487 8.904 199.487 8.176C199.487 7.42933 199.749 6.81333 200.271 6.328C200.813 5.824 201.503 5.572 202.343 5.572C203.165 5.572 203.837 5.824 204.359 6.328C204.901 6.81333 205.171 7.42933 205.171 8.176C205.171 8.904 204.901 9.52 204.359 10.024C203.837 10.5093 203.165 10.752 202.343 10.752ZM204.723 12.376V28H199.935V12.376H204.723ZM216.901 23.94V28H214.465C212.729 28 211.376 27.58 210.405 26.74C209.434 25.8813 208.949 24.4907 208.949 22.568V16.352H207.045V12.376H208.949V8.568H213.737V12.376H216.873V16.352H213.737V22.624C213.737 23.0907 213.849 23.4267 214.073 23.632C214.297 23.8373 214.67 23.94 215.193 23.94H216.901ZM226.68 28.224C225.149 28.224 223.768 27.8973 222.536 27.244C221.323 26.5907 220.361 25.6573 219.652 24.444C218.961 23.2307 218.616 21.812 218.616 20.188C218.616 18.5827 218.971 17.1733 219.68 15.96C220.389 14.728 221.36 13.7853 222.592 13.132C223.824 12.4787 225.205 12.152 226.736 12.152C228.267 12.152 229.648 12.4787 230.88 13.132C232.112 13.7853 233.083 14.728 233.792 15.96C234.501 17.1733 234.856 18.5827 234.856 20.188C234.856 21.7933 234.492 23.212 233.764 24.444C233.055 25.6573 232.075 26.5907 230.824 27.244C229.592 27.8973 228.211 28.224 226.68 28.224ZM226.68 24.08C227.595 24.08 228.369 23.744 229.004 23.072C229.657 22.4 229.984 21.4387 229.984 20.188C229.984 18.9373 229.667 17.976 229.032 17.304C228.416 16.632 227.651 16.296 226.736 16.296C225.803 16.296 225.028 16.632 224.412 17.304C223.796 17.9573 223.488 18.9187 223.488 20.188C223.488 21.4387 223.787 22.4 224.384 23.072C225 23.744 225.765 24.08 226.68 24.08ZM242.184 14.98C242.744 14.1213 243.444 13.4493 244.284 12.964C245.124 12.46 246.057 12.208 247.084 12.208V17.276H245.768C244.573 17.276 243.677 17.5373 243.08 18.06C242.483 18.564 242.184 19.46 242.184 20.748V28H237.396V12.376H242.184V14.98Z" fill="url(#paint0_linear_15920_554)"/>
<path d="M16.5063 27.1564C15.9899 32.1191 12.1269 35.494 7.00413 35.1076C1.88138 34.7212 -0.239882 30.5253 0.0213873 26.5527C0.298209 22.3024 2.41014 20.4097 3.75381 17.7985C5.62002 14.1761 4.97307 11.4411 5.35875 9.9801C5.52671 9.34315 6.31985 9.09562 6.83306 9.52427C9.86255 12.0449 17.2776 19.7455 16.5063 27.1564ZM35.0968 26.5165C36.8666 29.7344 36.0393 34.1688 32.5806 35.4699C27.3956 37.4199 23.9742 33.7975 23.3521 27.7602C23.1158 25.4539 21.4517 21.8858 21.0692 20.8474C20.9043 20.3946 21.2744 19.9357 21.7628 19.9931C24.6336 20.3402 32.453 21.7137 35.0968 26.5165ZM31.4608 2.14963C35.6785 4.99625 37.0097 10.5657 34.0829 14.6651C32.058 17.4966 26.4905 18.1366 23.038 15.9873C19.3429 13.687 18.332 11.2932 16.1952 8.74244C14.13 6.27919 11.7785 4.89663 10.6495 3.8582C10.158 3.4054 10.3198 2.61149 10.9543 2.38509C14.696 1.03875 25.1593 -2.1037 31.4608 2.14963Z" fill="#1FB2F5"/>
<path d="M14.7084 27.3044C14.5933 27.6394 14.4315 27.9685 14.1703 28.21C13.9059 28.4545 13.5264 28.5994 13.175 28.5179C12.6586 28.4001 12.3725 27.8749 12.1921 27.3919C11.6973 26.0654 11.5145 24.6482 11.6571 23.2442C11.738 22.4473 12.0397 21.4059 12.9697 21.1885C13.5918 21.0436 13.9868 21.5145 14.2418 22.0036C15.0256 23.5038 15.2558 25.7196 14.7084 27.3044ZM33.837 28.6386C33.8308 28.9043 33.7873 29.185 33.6007 29.3782C33.271 29.7254 32.6769 29.6137 32.2445 29.3993C31.2648 28.9163 30.5183 28.056 30.0393 27.0961C29.7283 26.4652 29.2555 25.309 29.9522 24.7717C30.4374 24.3974 31.187 24.3853 31.6847 24.7083C32.9257 25.5173 33.8775 27.1987 33.837 28.6386ZM31.3643 5.93811C30.5929 7.12144 28.7298 6.70184 27.212 4.71555C26.4468 3.71938 25.2369 3.26658 24.562 2.97377C23.3054 2.42738 24.4438 1.68781 25.0192 1.63347C26.6832 1.47952 27.6163 1.60026 29.1249 2.33079C30.313 2.91037 32.2477 4.58574 31.3643 5.93811Z" fill="#B3E5FC"/>
<defs>
<linearGradient id="paint0_linear_15920_554" x1="48" y1="22.5" x2="248" y2="22.5" gradientUnits="userSpaceOnUse">
<stop stop-color="#1FB2F5"/>
<stop offset="1" stop-color="#64D877"/>
</linearGradient>
</defs>
</svg>
